<?xml version="1.0" encoding="UTF-8"?>
<svg width="18px" height="20px" viewBox="0 0 79 89" version="1.1" xmlns="http://www.w3.org/2000/svg"
	 xmlns:xlink="http://www.w3.org/1999/xlink">
	<g stroke="none" stroke-width="1" fill="none" fill-rule="evenodd">
		<g transform="translate(-173.000000, -597.000000)" fill="#FFFFFE">
			<path
				d="M240.274,617.903 C238.572,619.671 236.344,622.211 233.983,625.466 C239.158,630.949 242.09,638.226 242.09,645.826 C242.09,662.175 228.787,675.478 212.436,675.478 C196.086,675.478 182.782,662.175 182.782,645.826 C182.782,634.299 189.541,623.887 199.702,619.039 L212.141,662.608 L217.089,647.332 C217.117,647.246 219.914,638.679 225.035,629.157 C231.553,617.033 238.752,609.025 245.852,605.998 L242.018,597 C236.219,599.472 231.11,603.896 226.726,609.078 C222.201,607.325 217.345,606.396 212.469,606.391 L214.738,616.267 C216.76,616.422 218.738,616.776 220.661,617.332 C217.686,621.941 215.205,626.658 213.24,630.835 L206.311,606.557 L201.609,607.896 C184.765,612.697 173,628.294 173,645.826 C173,667.568 190.692,685.259 212.436,685.259 C234.18,685.259 251.871,667.568 251.871,645.826 C251.871,635.324 247.668,625.279 240.274,617.903"
				id="Fill-40"></path>
		</g>
	</g>
</svg>
